<svg width="800" height="800" viewBox="0 0 800 800" fill="none" xmlns="http://www.w3.org/2000/svg">
<path fill-rule="evenodd" clip-rule="evenodd" d="M23.6427 0.431777C10.263 0.975355 8.89727 1.52385 3.03523 8.69652L0 12.4101V399.36V786.31L2.63226 790.744C4.26998 793.503 6.88238 796.078 9.55037 797.563L13.8352 799.948L398.981 799.984C812.866 800.022 787.628 800.326 793.397 795.243C794.678 794.115 796.688 791.421 797.863 789.259L800 785.327V400.006C800 25.7204 799.947 14.5864 798.147 11.2444C795.697 6.69521 792.724 3.54285 789.082 1.63099C786.376 0.209629 751.898 0.0612032 410.918 0.0041914C204.566 -0.0311952 30.2918 0.161463 23.6427 0.431777ZM360.289 26.9147C358.939 27.4573 356.256 32.3564 351.981 42.0887C348.508 49.9927 345.316 56.4606 344.888 56.4606C344.46 56.4606 341.736 53.2542 338.837 49.3341C331.3 39.1457 325.048 31.515 323.525 30.6441C321.705 29.6041 304.129 32.5363 302.498 34.1513C300.918 35.7162 299.81 34.1778 320.9 59.7073C329.712 70.3734 336.515 79.5179 336.988 81.3325C337.437 83.0605 338.33 90.6677 338.97 98.2365C339.61 105.805 340.55 113.038 341.059 114.31C341.96 116.561 342.2 116.603 350.149 115.918C361.567 114.933 362.148 114.524 361.329 108.035C360.965 105.142 360.073 97.1385 359.349 90.2499L358.032 77.724L369.964 53.3898C376.93 39.1831 381.649 28.4167 381.301 27.5222C380.82 26.2788 378.965 26.0006 371.495 26.0507C366.429 26.0851 361.386 26.4744 360.289 26.9147ZM432.5 27.1742C431.151 28.7833 429.995 39.4917 426.796 79.9829C425.15 100.807 424.614 112.194 425.251 112.824C426.554 114.114 441.262 115.34 443.307 114.329C445.215 113.385 445.843 109.541 446.744 93.3217C447.106 86.8341 447.54 81.2774 447.712 80.9747C448.002 80.4626 468.998 82.632 469.495 83.2257C469.618 83.3721 469.072 89.0212 468.28 95.7791C467.489 102.537 466.765 110.46 466.671 113.384C466.507 118.51 466.609 118.732 469.479 119.525C471.117 119.978 475.583 120.46 479.404 120.597L486.352 120.845L489.501 95.2876C491.233 81.2312 493.614 61.8266 494.792 52.166C496 42.2666 496.56 34.2299 496.075 33.7503C494.956 32.6415 485.643 30.9036 480.825 30.9036C476.257 30.9036 476.518 30.2293 474.034 48.4406C472.977 56.1932 471.965 62.67 471.788 62.8331C471.338 63.246 450.744 61.3341 450.238 60.8328C450.012 60.6097 450.343 53.4704 450.974 44.9688C451.887 32.6602 451.867 29.2748 450.874 28.3518C448.933 26.5471 433.836 25.5799 432.5 27.1742ZM260.565 41.3397C250.243 43.573 250.421 42.2293 257.046 67.9652C260.218 80.2896 264.946 99.0917 267.552 109.747C270.158 120.403 272.578 129.581 272.928 130.143C273.279 130.706 274.322 131.171 275.245 131.177C277.588 131.191 318.613 121.262 320.186 120.3C321.227 119.663 321.242 118.059 320.265 111.836C318.515 100.693 318.767 100.799 303.237 104.623C295.771 106.462 289.835 107.465 289.361 106.968C288.905 106.49 284.875 91.7244 280.405 74.1539C275.935 56.5835 271.817 41.6552 271.254 40.979C270.02 39.5006 268.885 39.5389 260.565 41.3397ZM541.197 44.4193C540.349 45.3659 533.967 55.8698 527.014 67.7637C520.063 79.6565 509.95 96.6569 504.544 105.543C499.137 114.428 494.848 122.391 495.01 123.237C495.414 125.337 511.381 129.854 513.58 128.491C514.436 127.96 516.871 124.544 518.992 120.902C523.399 113.327 521.669 113.546 537.707 118.521L548.368 121.828L548.476 128.708C548.654 139.975 548.736 140.098 558.409 143.381C563.07 144.964 567.635 145.973 568.553 145.623C570.584 144.852 570.673 140.273 569.226 111.315C567.605 78.9026 565.216 51.1644 563.94 49.9426C562.951 48.995 545.034 42.6991 543.328 42.6991C543.004 42.6991 542.046 43.4727 541.197 44.4193ZM61.0799 53.437C57.6139 60.2371 56.6213 60.9262 48.9132 61.8767C40.5638 62.9069 40.1668 64.1385 46.2958 69.9891L51.4462 74.9069L50.2571 82.0353C49.603 85.9554 49.3003 89.3928 49.5831 89.6739C49.867 89.9541 53.2586 88.7411 57.1206 86.9786L64.1419 83.7732L70.406 86.8273C76.4377 89.7683 78.9082 90.4957 78.9082 89.3328C78.9082 89.0301 78.4189 85.6595 77.8204 81.8407L76.7325 74.898L81.8422 69.7738C87.7697 63.8299 87.4462 62.9688 78.8993 61.9475C75.8928 61.5877 72.9211 60.9803 72.2968 60.5969C71.6725 60.2145 70.0506 57.4141 68.6938 54.3748C67.337 51.3354 65.7449 48.5537 65.1563 48.1939C64.5241 47.8066 62.8586 49.9475 61.0799 53.437ZM731.317 53.9599C728.528 59.5923 726.826 60.7542 719.603 61.9563C711.507 63.304 711.316 63.9095 717.143 69.7522C722.848 75.4731 722.665 74.5373 720.459 86.6867C719.705 90.8328 721.182 90.8564 729.24 86.8282L735.347 83.7761L742.097 87.0101C745.81 88.7883 749.125 89.9698 749.463 89.6346C749.802 89.2994 749.502 85.8236 748.795 81.9115L747.512 74.7978L752.664 70.2987C759.962 63.9252 759.68 63.1939 749.38 61.7971C742.398 60.8505 741.485 60.1693 738.972 54.0366C737.746 51.0455 736.119 48.5969 735.358 48.5969C734.597 48.5969 732.778 51.0101 731.317 53.9599ZM202.978 58.8335C189.693 62.7761 169.231 71.4704 169.231 73.1739C169.231 73.7833 172.37 81.5527 176.207 90.4387C180.045 99.3256 186.992 115.949 191.647 127.381C201.555 151.718 203.512 155.74 205.442 155.74C208.119 155.74 217.954 151.639 220.389 149.508L222.814 147.385L217.373 134.606C214.379 127.578 211.927 121.332 211.921 120.727C211.916 120.121 213.95 119.061 216.443 118.37C220.238 117.317 221.175 117.335 222.21 118.487C237.217 135.178 243.168 140.995 245.239 140.995C248.374 140.995 260.471 136.576 262.305 134.76C263.612 133.465 262.302 131.8 250.863 120.223L237.943 107.149L240.281 104.115C244.203 99.0219 245.925 93.7611 245.902 86.9324C245.865 75.8259 239.575 65.8351 229.343 60.6333C225.315 58.5858 222.643 58.0216 215.881 57.7935C210.825 57.6225 205.655 58.0392 202.978 58.8335ZM610.876 73.7539C609.262 77.3181 607.94 80.4075 607.94 80.6189C607.94 81.4033 587.162 129.092 582.707 138.536C580.165 143.923 578.214 149.208 578.373 150.283C578.714 152.6 593.247 159.072 596.097 158.176C597.065 157.872 598.504 155.761 599.295 153.487C600.086 151.212 607.715 133.378 616.248 113.857C624.78 94.3351 631.762 77.2611 631.762 75.9134C631.762 73.8207 630.73 73.0127 624.686 70.3685C614.73 66.013 614.34 66.1084 610.876 73.7539ZM203.97 79.7814C195.609 82.6654 195.7 82.3469 200.204 92.8587C202.399 97.979 204.289 102.275 204.406 102.407C204.523 102.539 208.653 101.088 213.584 99.1821C221.079 96.2863 222.841 95.1834 224.323 92.4567C226.535 88.3882 225.765 84.7748 221.862 80.9088C219.406 78.477 218.278 78.0966 213.724 78.1634C210.816 78.2057 206.427 78.9341 203.97 79.7814ZM542.65 82.7548C541.604 84.2411 539.11 88.0206 537.108 91.1533L533.467 96.8495L536.86 98.2532C538.726 99.0248 542.134 99.9547 544.433 100.319C548.215 100.918 548.563 100.804 548.081 99.1172C547.79 98.092 547.252 93.3836 546.887 88.6526C546.522 83.9226 545.848 80.0517 545.388 80.0517C544.928 80.0517 543.696 81.2686 542.65 82.7548ZM140.252 84.7001C136.051 86.6189 132.382 88.7843 132.1 89.5117C131.818 90.2391 133.292 94.0481 135.376 97.976C137.459 101.904 141.967 110.425 145.393 116.913C148.818 123.4 154.02 133.178 156.952 138.641C159.884 144.104 162.283 149.124 162.283 149.797C162.283 152.553 158.771 158.057 155.911 159.784C154.229 160.799 151.172 161.632 149.117 161.634C143.173 161.639 139.863 157.528 127.758 135.098C113.253 108.22 109.871 102.66 108.035 102.66C105.628 102.66 94.3841 108.252 92.3782 110.446C90.6253 112.364 90.7186 112.646 96.0526 121.544C99.062 126.565 103.865 135.319 106.726 140.995C123.249 173.784 129.049 180.129 144.479 182.289C168.115 185.597 187.927 164.844 181.66 143.342C179.759 136.819 152.935 84.1624 150.546 82.2634C148.614 80.728 149.304 80.5648 140.252 84.7001ZM648.352 88.3037C641.082 101.184 609.926 163.77 609.926 165.492C609.926 167.038 611.504 168.224 616.61 170.518C626.99 175.178 627.047 175.143 634.906 159.426C639.409 150.419 642.198 145.91 643.264 145.91C644.144 145.91 646.398 147.43 648.273 149.287C651.611 152.592 651.669 152.791 651.096 158.87C650.773 162.284 650.423 169.924 650.317 175.846L650.124 186.616L658.606 191.019C669.947 196.907 670.441 196.659 670.583 185.013C670.643 179.996 670.979 171.747 671.327 166.684L671.96 157.479L679.492 155.331C688.054 152.89 691.372 150.649 696.03 144.159C704.686 132.102 704.067 117.514 694.467 107.32C691.915 104.61 688.096 101.307 685.981 99.9793C678.571 95.3289 655.173 83.9835 652.993 83.9835C651.421 83.9835 650.091 85.2221 648.352 88.3037ZM660.052 111.504C659.026 113.146 650.62 129.511 650.62 129.864C650.62 130.821 666.901 138.046 669.056 138.046C674.663 138.046 680.397 132.285 680.397 126.652C680.397 122.696 676.743 118.005 671.004 114.594C665.027 111.042 661.042 109.917 660.052 111.504ZM64.8913 135.401C51.7826 139.827 41.3707 150.833 37.0898 164.792C35.4243 170.222 35.0968 173.269 35.4908 179.654C36.1231 189.892 38.3285 196.284 43.6705 203.355C53.0799 215.814 64.7097 221.052 81.6536 220.462C90.2164 220.164 92.1419 219.746 97.8829 216.945C109.734 211.162 119.92 197.515 120.046 187.25C120.097 183.037 119.976 182.856 116.629 182.164C114.721 181.769 110.545 181.302 107.35 181.126L101.541 180.805L99.595 185.939C95.1921 197.55 80.9816 203.075 69.9236 197.475C65.995 195.486 59.4541 187.925 58.0715 183.776C56.4735 178.979 57.2993 170.909 59.9067 165.848C63.9692 157.96 73.2844 152.791 83.4333 152.791C89.5305 152.791 90.266 151.423 88.8367 142.747C88.141 138.522 87.0074 135.086 86.0705 134.36C83.4859 132.359 72.272 132.909 64.8913 135.401ZM725.775 136.113C713.55 139.151 705.547 148.038 704.473 159.768C704.029 164.624 704.372 166.281 706.932 171.634C708.568 175.057 712.905 181.174 716.571 185.229C725.94 195.595 726.636 198.376 720.864 202.38C714.476 206.811 706.289 202.096 699.032 189.808C697.363 186.983 695.626 185.229 694.497 185.229C690.315 185.229 682.314 188.35 680.858 190.55C679.471 192.646 679.524 193.334 681.463 198.467C687.387 214.147 704.165 225.531 719.548 224.307C740.009 222.681 752.512 204.636 744.379 188.471C742.994 185.718 739.29 180.655 736.15 177.22C724.924 164.944 724.002 162.598 728.611 158.033C730.734 155.931 731.817 155.587 734.986 156.008C740.059 156.681 743.354 159.222 746.112 164.586C749.282 170.752 750.842 172.45 753.327 172.45C756.616 172.45 765.042 169.46 767.047 167.581C768.767 165.97 768.754 165.696 766.728 160.33C764.39 154.145 758.675 146.425 753.586 142.581C745.876 136.758 734.153 134.031 725.775 136.113ZM381.638 137.084C320.512 141.23 256.209 170.458 211.165 214.57C189.092 236.187 168.754 265.225 154.369 295.66C136.801 332.832 128.322 376.598 129.859 422.171C130.432 439.135 131.981 453.324 133.427 454.839C133.831 455.263 135.172 451.061 136.406 445.501C137.641 439.942 139.987 429.863 141.62 423.105L144.589 410.818L153.776 401.972C161.804 394.241 163.533 391.947 167.489 383.787C169.978 378.651 172.748 372.391 173.646 369.876L175.275 365.304L182.153 363.766C194.299 361.049 200.639 357.096 208.506 347.332C214.525 339.861 217.166 338.861 220.959 342.617C227.299 348.896 215.792 367.164 199.738 376.307C192.47 380.446 192.375 380.617 188.125 397.189C187.551 399.423 186.416 401.8 185.601 402.469C183.123 404.506 183.927 406.25 187.841 407.326C200.186 410.721 214.318 405.184 260.546 378.839C292.785 360.466 292.544 360.566 297.049 363.692C298.787 364.897 299.256 366.185 299.256 369.76C299.256 375.498 298.726 375.99 266.998 399.694C244.779 416.293 233.747 425.429 233.747 427.227C233.747 427.643 234.829 428.251 236.151 428.581C238.125 429.071 242.57 426.342 261.026 413.309C273.386 404.581 284.094 397.213 284.823 396.936C285.704 396.601 287.391 398.989 289.853 404.058L293.556 411.683L290.609 414.2C288.99 415.584 282.391 420.918 275.947 426.054C256.684 441.408 251.975 445.469 248.722 449.537L245.622 453.413L248.638 454.07C251.301 454.649 252.728 453.914 260.785 447.814C265.806 444.012 270.071 441.058 270.265 441.249C270.853 441.832 255.838 471.809 254.424 472.876C252.973 473.97 243.758 478.028 215.881 489.85C181.701 504.345 161.292 513.209 160.667 513.828C159.144 515.335 184.013 550.856 197.303 566.158C211.542 582.553 235.433 604.352 247.783 612.216L250.403 613.886L251.638 605.27C252.396 599.981 252.663 591.9 252.331 584.34C251.475 564.935 246.935 549.78 231.652 515.324C227.891 506.846 224.814 499.02 224.814 497.932C224.814 495.445 228.398 492.896 231.898 492.896C234.278 492.896 235.021 493.832 238.721 501.497C249.936 524.73 257.985 546.518 261.687 563.669C264.577 577.055 264.838 602.58 262.194 613.209C260.717 619.145 260.686 620.187 261.946 621.564C264.469 624.321 274.504 629.865 275.295 628.939C275.712 628.452 281.161 621.197 287.405 612.817C293.651 604.437 308.268 585.485 319.891 570.7L341.021 543.819L341.944 536.788C342.452 532.921 342.88 528.982 342.897 528.037C342.92 526.79 343.742 526.316 345.887 526.316C349.317 526.316 349.466 525.902 350.322 513.925L350.891 505.957L346.907 509.71C342.206 514.139 336.678 515.867 329.043 515.297C315.422 514.279 306.273 504.587 306.225 491.126C306.202 484.697 307.425 481.275 311.83 475.448C314.174 472.348 313.617 470.803 311.197 473.691C310.535 474.481 307.465 476.072 304.376 477.227C292.636 481.615 279.953 476.935 274.35 466.149C271.847 461.329 271.944 459.902 275.283 452.484C276.838 449.031 279.161 443.198 280.446 439.523C282.602 433.355 283.539 432.15 292.613 423.857C302.311 414.996 302.438 414.821 301.931 411.074C301.648 408.985 299.673 403.814 297.543 399.583L293.67 391.89L299.084 387.163C302.6 384.095 305.368 380.555 306.979 377.069L309.46 371.702L328.428 362.765C347.03 354 414.533 321.011 415.256 320.331C415.458 320.141 415.326 318.814 414.963 317.382C414.358 314.994 413.996 314.828 410.625 315.39C407.544 315.904 407.27 315.82 408.933 314.877C412.478 312.868 413.38 311.096 412.182 308.492C410.85 305.598 411.051 305.597 401.691 308.526C368.864 318.799 319.086 334.891 302.233 340.677C291.042 344.52 280.769 347.624 279.404 347.576C278.04 347.527 273.573 347.364 269.479 347.214C263.13 346.981 261.197 347.328 256.342 349.576C253.211 351.025 249.149 353.344 247.315 354.729C244.68 356.719 242.858 357.244 238.616 357.233C235.666 357.226 232.315 356.972 231.171 356.667C229.142 356.127 229.129 355.984 230.6 350.744C231.627 347.094 232.528 345.532 233.415 345.869C234.133 346.142 236.921 345.01 239.613 343.353C242.525 341.56 246.646 340.048 249.796 339.617C253.855 339.061 254.624 338.709 253.102 338.108C245.162 334.968 242.281 333.331 238.308 329.705C235.821 327.436 232.552 323.083 231.042 320.034C228.739 315.381 228.297 313.222 228.297 306.624C228.297 299.999 228.735 297.874 231.083 293.134C232.614 290.039 235.727 285.931 237.999 284.005C242.573 280.129 251.341 277.099 254.833 278.19C256.615 278.747 256.194 277.944 252.765 274.254C246.295 267.288 244.198 261.978 244.201 252.562C244.203 246.274 244.656 243.851 246.463 240.476C252.3 229.565 260.997 224.209 272.953 224.16C279.911 224.131 282.373 224.9 289.707 229.389L292.98 231.392L291.05 225.758C283.821 204.654 305.592 180.379 329.745 182.612C337.132 183.295 343.658 185.939 349.341 190.551L353.43 193.87L353.046 187.829C352.694 182.293 352.939 181.38 355.983 176.91C362.151 167.853 372.561 164.564 384.187 167.998C392.789 170.54 400.496 178.945 400.496 185.783V188.381L404.007 185.329C405.937 183.65 409.846 181.061 412.692 179.575C417.427 177.102 418.792 176.873 428.784 176.873C438.654 176.873 440.229 177.13 445.194 179.545C452.055 182.881 459.615 190.179 462.503 196.253L464.708 200.887L467.413 198.09C468.902 196.551 472.432 194.023 475.259 192.472C479.955 189.895 481.251 189.652 490.323 189.652C498.776 189.652 500.952 189.998 504.993 191.985C521.88 200.292 529.727 218.648 522.542 233.032L520.023 238.077L525.388 238.625C536.576 239.768 548.481 248.495 553.947 259.558C556.161 264.041 556.805 266.893 557.118 273.616C557.649 285.017 555.146 291.788 547.766 298.924C542.654 303.866 542.596 303.983 545.688 303.104C550.559 301.721 554.05 302.013 558.295 304.158C565.543 307.821 569.64 315.631 569.64 325.795C569.64 351.347 535.705 362.559 519.565 342.338C515.511 337.258 512.72 329.905 512.565 323.893C512.491 321.024 512.117 321.723 510.508 327.742C509.427 331.788 508.15 335.567 507.671 336.14C507.136 336.778 508.83 341.537 512.049 348.443C514.936 354.636 517.567 360.445 517.895 361.351C518.324 362.535 516.976 364.154 513.092 367.122C510.122 369.391 507.692 371.716 507.692 372.289C507.692 372.862 514.982 382.872 523.891 394.533C532.8 406.193 540.371 416.209 540.716 416.79C541.084 417.411 537.369 419.957 531.713 422.96C526.417 425.772 521.49 428.441 520.762 428.891C519.725 429.534 520.312 431.426 523.483 437.673L527.526 445.635L525.006 447.394C523.621 448.363 521.504 449.893 520.301 450.797L518.114 452.44L520.692 455.221C522.109 456.749 524.02 459.106 524.939 460.458C526.599 462.902 526.577 462.944 520.957 467.895L515.304 472.875L519.076 480.674C525.493 493.943 524.189 502.534 514.757 509.101L510.504 512.063L484.376 512.354L458.249 512.645L457.688 518.252C457.381 521.336 456.845 530.56 456.496 538.749L455.864 553.639L458.205 554.355C461.705 555.426 493.477 569.991 517.122 581.364C528.586 586.879 541.315 592.835 545.409 594.601C549.504 596.366 557.225 599.88 562.568 602.409L572.281 607.008L583.216 596.92C589.23 591.371 598.825 581.872 604.538 575.812L614.926 564.793L612.404 561.113C608.546 555.483 606.593 547.645 607.323 540.722C608.189 532.525 611.6 525.802 618.719 518.266C622.1 514.686 624.814 510.912 624.814 509.79C624.814 508.676 623.366 504.089 621.595 499.594C619.289 493.741 617.159 490.211 614.09 487.158L609.804 482.894L610.475 475.273L611.146 467.652L604.829 460.466C601.354 456.513 596.612 451.027 594.293 448.275L590.074 443.27V357.179V271.089L592.371 268.951C595.244 266.28 598.465 266.252 610.016 268.8C619.911 270.983 625.806 273.107 625.806 274.491C625.806 275.642 617.51 276.624 607.692 276.635C600.151 276.644 600 276.692 600 279.101V281.559H612.407C622.186 281.559 624.814 281.841 624.814 282.891C624.814 284.321 616.343 285.471 605.707 285.484C600.791 285.49 600 285.746 600 287.334C600 289.718 603.468 290.406 615.509 290.406C623.031 290.406 624.814 290.682 624.814 291.85C624.814 293.026 622.562 293.345 612.655 293.57C600.898 293.837 600.485 293.919 600.179 296.058C599.88 298.141 600.223 298.275 606.134 298.376C615.556 298.537 623.844 299.621 624.094 300.727C624.228 301.316 619.751 301.906 612.903 302.201C602.178 302.663 601.471 302.819 601.186 304.796C600.894 306.824 601.295 306.913 612.274 307.258C622.904 307.593 626.024 308.211 624.531 309.689C624.195 310.024 618.984 310.529 612.952 310.812C603.453 311.257 601.985 311.552 601.985 313.013C601.985 314.465 603.536 314.797 613.136 315.398C619.27 315.783 624.452 316.258 624.65 316.456C624.85 316.654 624.719 317.287 624.358 317.863C623.962 318.498 619.61 318.911 613.341 318.911C603.672 318.911 602.978 319.042 602.978 320.859C602.978 323.266 604.907 323.75 615.801 324.071C621.418 324.237 624.293 324.721 624.569 325.546C624.879 326.477 622.436 326.775 614.474 326.775C604.713 326.775 603.97 326.911 603.97 328.697C603.97 330.894 606.356 331.477 617.297 331.947C629.809 332.487 625.043 335.585 611.663 335.611C606.62 335.621 605.955 335.851 605.955 337.588C605.955 339.365 606.617 339.554 612.845 339.554C616.634 339.554 619.984 339.955 620.29 340.444C620.596 340.934 621.739 341.104 622.83 340.821C624.209 340.464 624.814 340.791 624.814 341.896C624.814 343.242 623.446 343.485 615.881 343.485C607.826 343.485 606.948 343.665 606.948 345.318C606.948 347.302 611.797 348.4 620.559 348.4C624.214 348.4 624.903 348.691 624.627 350.12C624.349 351.564 622.981 351.887 616.118 352.126C608.891 352.378 607.94 352.626 607.94 354.252C607.94 356.297 612.304 357.411 620.321 357.411C624.087 357.411 624.814 357.716 624.814 359.294C624.814 360.995 624.037 361.179 616.873 361.179C609.778 361.179 608.933 361.374 608.933 363.018C608.933 364.604 610.024 364.951 616.873 365.543C622.778 366.053 624.814 366.589 624.814 367.636C624.814 368.604 623.655 369.045 621.092 369.053C615.041 369.071 609.926 370.195 609.926 371.506C609.926 372.935 614.325 373.957 620.471 373.957C623.669 373.957 624.814 374.346 624.814 375.432C624.814 376.437 623.789 376.909 621.588 376.917C615.048 376.939 610.918 378.071 610.918 379.841C610.918 381.215 612.169 381.652 617.511 382.146C621.138 382.482 624.338 382.988 624.624 383.272C625.762 384.398 623.499 385.159 617.793 385.568C612.363 385.956 611.833 386.191 612.106 388.086C612.371 389.926 613.152 390.212 618.61 390.469C623.237 390.687 624.814 391.125 624.814 392.189C624.814 393.28 623.395 393.617 618.789 393.617C613.11 393.617 612.783 393.743 613.082 395.828C613.301 397.356 614.167 398.121 615.881 398.305C621.945 398.953 624.814 399.672 624.814 400.541C624.814 401.058 623.753 401.48 622.457 401.48C617.312 401.48 613.896 402.688 613.896 404.508C613.896 406.206 615.401 406.748 622.746 407.69C623.521 407.788 624.339 408.423 624.566 409.098C624.862 409.975 623.515 410.327 619.865 410.327C615.129 410.327 614.774 410.49 615.067 412.539C615.313 414.253 616.376 414.987 619.792 415.802C625.877 417.255 626.24 419.174 620.43 419.174C617.929 419.174 615.881 419.519 615.881 419.94C615.881 421.444 619.742 454.297 621.451 467.339C622.82 477.784 623.665 481.237 625.416 483.558C626.64 485.179 629.48 491.222 631.726 496.985C633.972 502.748 636.351 507.893 637.011 508.417C638.747 509.792 649.537 512.726 650.561 512.1C651.876 511.295 657.325 495.845 661.148 482.083C668.371 456.082 670.992 432.891 670.145 402.463C669.503 379.356 667.325 363.145 662.148 342.913C653.975 310.981 642.546 284.043 627.403 261.025C611.622 237.035 581.798 205.841 557.118 187.51C531.487 168.473 504.615 155.974 467.811 145.969C437.12 137.625 411.94 135.029 381.638 137.084ZM368.133 183.662C364.041 187.715 364.246 189.036 368.686 187.214C374.517 184.823 381.495 188.1 382.914 193.896C383.67 196.982 381.868 201.748 379.463 203.022C376.176 204.765 378.263 205.167 381.849 203.481C392.912 198.282 388.986 181.986 376.33 180.573C372.096 180.101 371.503 180.325 368.133 183.662ZM417.956 194.638C412.07 196.774 408.192 200.171 404.985 205.999C402.584 210.36 402.088 212.393 402.135 217.698C402.166 221.23 402.815 225.292 403.577 226.726C404.891 229.199 404.967 228.996 405.043 222.763C405.156 213.552 409.406 206.693 416.69 203.968C421.263 202.256 429.914 202.7 434.2 204.865C441.535 208.572 445.657 218.134 442.818 224.863C441.008 229.15 435.828 232.634 432.01 232.129C428.458 231.66 428.551 232.543 432.286 234.729C440.64 239.615 451.045 229.476 451.095 216.398C451.156 200.415 433.673 188.935 417.956 194.638ZM318.61 200.619C306.6 206.87 301.952 219.826 307.864 230.582C310.774 235.879 314.666 238.767 320.283 239.798C324.218 240.52 330.156 239.047 331.953 236.902C332.844 235.839 332.24 235.686 328.723 236.079C312.564 237.883 308.445 216.072 323.575 208.819C333.115 204.245 344.734 209.932 348.678 221.107C349.696 223.991 349.72 223.958 349.776 219.632C349.884 211.172 344.801 204.257 335.71 200.495C331.047 198.565 322.436 198.627 318.61 200.619ZM482.49 206.103C477.234 207.48 469.509 215.004 468.094 220.124C465.824 228.341 468.019 235.881 474.039 240.547C477.63 243.33 479.177 243.318 476.706 240.526C471.748 234.927 470.792 228.541 473.945 222.09C477.644 214.523 486.846 211.687 494.745 215.678C500.618 218.645 503.226 222.939 503.226 229.643V235.23L505.476 233.142C508.899 229.965 510.251 224.42 508.784 219.571C507.089 213.969 501.605 208.312 496.056 206.44C490.899 204.699 488.111 204.63 482.49 206.103ZM372.706 227.617C363.399 231.295 358.914 244.605 363.792 254.074C366.014 258.389 371.542 262.505 376.411 263.469C384.791 265.129 394.022 260.727 396.415 253.929L397.473 250.923L394.043 253.905C387.88 259.264 379.598 259.223 373.953 253.806C366.05 246.218 368.233 234.9 378.66 229.412C381.503 227.916 381.743 227.575 379.982 227.539C378.798 227.516 377.235 227.302 376.508 227.066C375.781 226.83 374.069 227.077 372.706 227.617ZM125.557 233.887C123.759 239.24 122.981 240.373 120.762 240.866C112.71 242.655 110.577 243.438 110.925 244.474C111.136 245.102 114.088 246.425 117.484 247.416C124.23 249.384 124.773 250.073 125.98 258.214C127.043 265.384 129.197 264.173 131.882 254.896C133.571 249.058 134.771 248.097 142.173 246.65C145.354 246.028 147.125 244.595 146.039 243.519C145.73 243.214 142.675 242.237 139.249 241.35C134.5 240.121 132.949 239.276 132.72 237.794C132.189 234.376 129.394 227.496 128.535 227.496C128.078 227.496 126.738 230.372 125.557 233.887ZM667.216 233.639C664.782 239.685 664.658 239.807 659.418 241.257C649.873 243.901 649.575 245.138 658.005 247.141C664.424 248.666 665.754 249.944 667.467 256.229C668.708 260.784 670.837 263.751 671.746 262.194C671.997 261.761 672.502 259.367 672.868 256.872C673.77 250.698 675.373 248.886 681.482 247.132C688.737 245.049 688.704 243.606 681.355 241.582C674.823 239.784 674.399 239.312 672.453 231.674C671.867 229.376 671.005 227.496 670.538 227.496C670.071 227.496 668.576 230.261 667.216 233.639ZM214.001 232.165C212.504 233.651 209.22 238.628 206.702 243.223C196.145 262.489 188.457 285.969 186.101 306.133C184.894 316.467 185.009 351.578 186.254 352.809C186.608 353.16 189.173 352.307 191.951 350.912L197.004 348.377L196.388 336.839C194.788 306.871 203.411 272.666 219.555 244.949C224.51 236.442 224.935 234.276 222.232 231.318C219.864 228.727 217.183 229.003 214.001 232.165ZM264.842 241.771C255.701 248.906 257.396 263.176 268.123 269.402C275.552 273.713 284.553 271.659 288.75 264.697C291.091 260.813 290.692 260.538 286.885 263.412C279.696 268.843 271.194 266.829 267.19 258.746C263.715 251.731 267.823 243.823 275.581 242.594C282.114 241.56 279.724 239.283 272.127 239.302C269.227 239.31 267.049 240.048 264.842 241.771ZM505.707 254.616C497.072 258.31 490.73 267.907 490.933 276.971C491.038 281.652 491.102 281.781 491.742 278.61C492.728 273.73 494.204 271.395 498.739 267.551C512.552 255.842 532.883 264.15 531.264 280.84C530.623 287.438 526.702 291.391 520.064 292.133C515.782 292.61 515.498 292.792 517.154 293.991C519.547 295.723 526.915 295.695 530.323 293.939C545.82 285.954 542.71 262.855 525.062 254.888C520.176 252.682 510.544 252.547 505.707 254.616ZM58.3394 262.907C49.9226 265.628 41.5663 273.258 37.6784 281.773C35.3995 286.765 34.8476 289.392 34.799 295.483L34.7395 303.016L31.1136 304.603C28.4655 305.763 27.0601 307.25 25.9027 310.114C23.2705 316.628 23.7936 320.555 27.8243 324.547C29.7539 326.458 31.5474 327.806 31.8114 327.545C32.0754 327.283 31.7955 324.903 31.1901 322.254C30.4 318.802 30.3901 316.667 31.1533 314.722L32.2174 312.007L70.6997 312.265L109.181 312.522L109.148 320.535L109.116 328.548L111.63 326.596C115.248 323.787 116.551 320.992 116.587 315.963C116.627 310.286 113.846 305.694 109.506 304.268L106.203 303.184L106.166 295.075C106.134 288.144 105.712 286.139 103.263 281.286C95.1226 265.161 75.8104 257.26 58.3394 262.907ZM720.596 262.242C704.644 266.35 694.467 278.861 693.491 295.561C693.051 303.085 692.989 303.238 689.775 304.749C682.884 307.987 681.379 319.155 687.043 325.011C690.639 328.727 692.531 328.685 691.205 324.918C690.655 323.355 690.343 319.928 690.512 317.3L690.819 312.522H729.529H768.238L768.545 317.3C768.714 319.928 768.402 323.355 767.852 324.918C766.511 328.728 767.873 328.498 771.609 324.283C774.217 321.342 774.69 320.018 774.69 315.656C774.69 309.703 772.881 306.525 768.442 304.676C765.493 303.448 765.421 303.256 765.228 296.061C764.863 282.45 757.718 271.263 745.621 265.356C737.27 261.277 728.551 260.192 720.596 262.242ZM441.131 264.174C429.975 267.277 423.325 276.033 423.325 287.616C423.325 296.154 426.279 301.127 433.957 305.516C434.619 305.894 434.067 304.308 432.729 301.991C427.801 293.456 430.55 281.776 438.557 277.218C446.739 272.56 454.072 273.112 460.715 278.889C469.164 286.236 470.337 299.532 463.238 307.469C461.602 309.297 461.621 309.326 463.731 308.229C466.18 306.957 469.906 302.348 472.339 297.581C474.676 293.004 474.453 283.217 471.893 277.981C466.694 267.345 452.55 260.997 441.131 264.174ZM60.9032 270.438C50.1687 273.571 41.1931 286.133 41.1921 298.023L41.1911 304.167L46.8983 304.348C63.7588 304.882 89.068 304.956 94.1479 304.487L99.9573 303.951L99.5851 296.932C98.8814 283.674 89.6149 271.497 79.3628 270.357C78.2471 270.233 76.9072 269.888 76.3851 269.589C74.6243 268.585 65.5454 269.083 60.9032 270.438ZM720.974 270.194C709.338 273.154 700.02 285.061 699.853 297.185C699.809 300.406 700.133 303.397 700.573 303.834C701.693 304.943 733.82 305.52 747.471 304.674L758.809 303.973V298.701C758.809 286.653 749.928 273.863 739.084 270.296C734.639 268.834 733.621 268.768 732.901 269.892C732.274 270.873 732.036 270.905 732.025 270.009C732.017 269.334 731.605 268.78 731.111 268.78C730.615 268.78 730.446 269.672 730.734 270.761C731.135 272.284 730.885 272.6 729.649 272.13C728.763 271.794 728.04 271.098 728.04 270.583C728.04 270.068 727.631 269.897 727.132 270.203C726.632 270.508 726.074 270.369 725.891 269.893C725.708 269.417 723.496 269.553 720.974 270.194ZM317.618 273.122C308.535 277.138 303.577 290.142 307.544 299.545C310.473 306.487 320.411 311.978 327.379 310.503C334.029 309.096 338.968 304.022 338.953 298.612C338.949 297.079 338.601 297.203 336.72 299.406C332.508 304.34 326.661 305.544 320.999 302.644C308.303 296.143 314.447 276.461 329.244 276.233C332.13 276.189 335.552 276.532 336.849 276.995C340.53 278.31 338.492 275.968 333.967 273.681C329.491 271.42 322.046 271.165 317.618 273.122ZM392.556 283.982C392.556 285.964 386.909 292.163 383.525 293.896C377.165 297.154 368.308 295.084 363.474 289.213L361.623 286.965L362.212 290.406C364.557 304.085 384.656 306.445 392.073 293.911C394.539 289.745 395.473 282.542 393.548 282.542C393.002 282.542 392.556 283.19 392.556 283.982ZM252.625 292.617C247.24 295.343 244.686 298.686 243.974 303.944C243.155 309.99 244.405 314.618 247.932 318.595C254.333 325.817 265.149 327.891 273.541 323.507C279.603 320.34 282.344 315.324 282.366 307.362C282.375 303.91 281.947 301.218 281.39 301.218C280.844 301.218 280.397 302.479 280.397 304.022C280.397 310.31 272.133 317.928 265.312 317.928C252.212 317.928 245.922 302.987 255.167 293.831C259.202 289.836 258.645 289.571 252.625 292.617ZM484.367 321.377C484.367 329.415 482.926 332.319 476.933 336.359C469.935 341.076 459.888 337.398 456.123 328.74C455.217 326.658 455.11 327.064 455.417 331.403C456.555 347.456 477.998 351.741 486.983 337.712C490.318 332.504 490.849 324.783 488.246 319.351C485.258 313.113 484.367 313.578 484.367 321.377ZM546.434 314.699C546.451 315.124 547.121 316.33 547.923 317.379C550.422 320.652 549.72 324.669 546.005 328.348C540.732 333.569 534.37 332.799 530.471 326.466L528.543 323.335V326.284C528.543 333.21 536.084 339.43 542.783 338.029C553.522 335.782 558.669 325.935 552.746 318.965C550.085 315.833 546.377 313.327 546.434 314.699ZM389.082 320.393C385.261 321.637 361.705 329.222 336.737 337.248C311.769 345.273 291.335 352.172 291.328 352.578C291.321 352.984 294.238 353.315 297.811 353.315C303.387 353.315 304.654 353.657 306.744 355.728C308.084 357.055 309.181 359.046 309.181 360.152C309.181 361.257 309.74 362.165 310.422 362.168C312.808 362.179 397.411 320.374 397.465 319.157C397.532 317.637 397.555 317.634 389.082 320.393ZM412.903 336.275C405.792 339.997 402.481 345.565 402.481 353.807C402.481 360.749 405.162 366.139 410.531 369.991C420.501 377.143 435.736 373.734 441.2 363.127C444.301 357.108 443.703 355.571 439.839 359.628C433.679 366.097 425.577 367.773 418.284 364.088C411.617 360.72 408.141 352.786 410.384 346.056C411.752 341.952 417.532 336.611 420.63 336.59C422.414 336.577 422.548 336.394 421.34 335.622C419.21 334.258 416.332 334.482 412.903 336.275ZM48.4764 341.351C45.8342 343.422 42.2203 346.754 40.4467 348.758L37.2208 352.401V376.119V399.837L43.9206 393.45C51.7211 386.016 63.9007 376.966 83.3747 364.138C105.048 349.86 104.715 350.174 104.715 344.009C104.715 339.438 104.441 338.727 102.481 338.207C101.253 337.882 89.6804 337.608 76.7643 337.601L53.2804 337.588L48.4764 341.351ZM695.825 338.816C695.611 339.493 695.146 345.243 694.792 351.595C694.349 359.554 694.48 363.145 695.214 363.145C695.799 363.145 696.278 362.751 696.278 362.268C696.278 359.071 709.353 348.29 724.649 338.874C726.173 337.936 723.538 337.692 711.384 337.646C700.077 337.602 696.116 337.9 695.825 338.816ZM266.005 355.971C264.913 356.208 258.713 358.88 252.227 361.909L240.434 367.417L234.858 366.256C231.79 365.618 228.387 364.871 227.295 364.597C225.776 364.215 224.611 365.145 222.333 368.562C220.695 371.017 216.741 375.109 213.547 377.656L207.741 382.287L210.57 383.484C212.126 384.143 214.119 384.701 214.998 384.726C215.877 384.75 218.162 385.822 220.074 387.107L223.551 389.444L231.875 384.788C236.453 382.227 247.792 375.894 257.072 370.715C276.909 359.641 278.268 358.734 276.923 357.457C275.724 356.32 268.764 355.371 266.005 355.971ZM759.305 358.879C757.668 360.216 750.521 365.119 743.424 369.776C722.457 383.535 707.084 394.953 700.993 401.293L695.285 407.233L695.272 428.685C695.265 440.483 694.989 451.133 694.66 452.349C693.78 455.602 695.374 454.963 698.838 450.675C703.197 445.277 712.103 437.731 723.573 429.718C750.334 411.022 761.698 402.306 762.317 400.006C762.606 398.925 762.718 388.682 762.564 377.244L762.283 356.449L759.305 358.879ZM339.243 370.901C339.578 376.787 339.854 377.417 343.623 380.898C350.115 386.895 360.096 387.215 367.236 381.653C370.136 379.393 373.639 372.814 373.675 369.556C373.692 368.015 373.043 368.398 370.546 371.398C366.78 375.922 362.467 377.889 356.31 377.889C349.385 377.889 344.514 374.703 340.53 367.568L338.884 364.619L339.243 370.901ZM199.527 389.93C198.088 394.231 197.286 398.577 197.865 398.931C198.497 399.319 211.755 395.081 212.633 394.212C213.082 393.768 202.24 388.702 200.842 388.702C200.344 388.702 199.753 389.255 199.527 389.93ZM90.8189 401.972C53.062 426.899 37.2208 440.182 37.2208 446.917C37.2208 449.547 37.3062 449.51 41.4392 445.043C47.9395 438.018 62 427.322 84.0814 412.606C95.1563 405.225 104.361 399.082 104.537 398.953C104.712 398.825 104.712 397.462 104.537 395.923L104.218 393.125L90.8189 401.972ZM376.22 398.802C369.959 402.314 366.424 408.154 365.933 415.796C365.644 420.292 366.024 423.513 367.205 426.578C371.934 438.84 389.92 443.863 396.733 434.824C398.475 432.513 400.866 425.071 399.865 425.071C399.633 425.071 398.071 426.619 396.393 428.512C393.667 431.586 392.813 431.952 388.352 431.952C383.799 431.952 382.99 431.583 379.112 427.743C372.204 420.903 371.903 412.404 378.318 405.373C382.139 401.184 386.35 399.53 391.346 400.256C395.536 400.865 395.416 399.776 391.099 397.99C386.189 395.958 380.762 396.254 376.22 398.802ZM445.307 399.6C442.174 403.527 436.221 406.395 431.207 406.395C426.501 406.395 420.702 403.982 419.027 401.327C417.325 398.627 416.068 399.137 416.833 402.217C418.534 409.069 424.134 413.266 431.579 413.272C440.157 413.279 446.365 408.145 448.515 399.269C449.355 395.8 448.25 395.914 445.307 399.6ZM322.581 402.186C321.489 402.448 319.207 403.7 317.51 404.965C309.036 411.285 309.018 425.031 317.475 431.419C323.898 436.271 332.339 435.537 336.416 429.773C338.698 426.547 338.326 426.027 334.933 427.704C330.527 429.88 325.389 428.638 321.378 424.426C318.586 421.494 318.114 420.29 318.114 416.09C318.114 410.277 319.215 407.815 323.425 404.21C326.526 401.554 326.406 401.266 322.581 402.186ZM600 428.02C596.233 431.751 598.06 435.884 603.474 435.884C607.076 435.884 608.933 434.364 608.933 431.416C608.933 428.974 606.054 426.054 603.644 426.054C602.732 426.054 601.092 426.939 600 428.02ZM100.744 443.671C98.8337 445.156 88.7841 451.808 78.4119 458.454C58.001 471.532 45.3519 480.845 40.3752 486.457L37.2208 490.016V512.979V535.942L43.2893 530.061C50.7752 522.806 62.2908 514.376 84.8725 499.619C94.4308 493.372 102.814 487.59 103.502 486.769C104.445 485.644 104.687 479.82 104.485 463.124L104.218 440.972L100.744 443.671ZM759.313 448.654C757.749 450.271 751.525 454.985 745.48 459.13C713.125 481.32 694.334 497.417 694.303 502.971C694.288 505.591 695.507 505.073 699.799 500.634C704.951 495.306 719.841 483.533 733.83 473.728C760.93 454.733 763.772 452.268 763.772 447.744C763.772 444.966 762.661 445.194 759.313 448.654ZM302.868 450.68C301.885 455.547 298.645 458.492 294.274 458.492C290.408 458.492 288.168 456.793 286.467 452.574C285.586 450.387 285.479 450.572 285.422 454.39C285.372 457.828 285.917 459.195 288.261 461.517C290.636 463.869 292 464.39 295.782 464.39C299.563 464.39 300.927 463.869 303.302 461.517C306.543 458.307 307.285 452.468 304.868 449.195C303.635 447.525 303.482 447.638 302.868 450.68ZM590.182 466.11C590.447 478.01 590.217 481.138 588.903 483.558C588.023 485.179 584.371 493.049 580.787 501.044C577.204 509.041 573.32 516.907 572.158 518.523C570.996 520.14 567.471 522.749 564.327 524.321C556.399 528.284 552.931 531.427 549.953 537.345C546.441 544.326 546.415 553.188 549.886 560.572C551.245 563.464 552.357 565.996 552.357 566.199C552.357 567.381 545.882 569.567 542.382 569.567C538.162 569.567 537.433 569.023 529.544 559.983C525.964 555.881 521.588 558.294 521.588 564.371C521.588 567.25 522.439 568.724 526.312 572.56C534.598 580.767 545.978 582.177 557.387 576.414C560.966 574.605 561.899 574.492 564.485 575.554C566.123 576.225 569.982 576.766 573.061 576.756C587.245 576.706 599.965 563.99 599.99 549.837C600.005 541.769 597.668 536.205 591.373 529.315C585.866 523.289 585.84 523.233 586.371 518.144C587.063 511.507 595.423 492.583 599.769 487.82C603.087 484.183 603.096 484.144 602.047 478.522C601.467 475.416 600.993 471.032 600.993 468.779C600.993 465.381 600.141 463.569 595.996 458.147C593.249 454.552 590.743 451.611 590.43 451.611C590.116 451.611 590.004 458.136 590.182 466.11ZM336.542 453.473C335.679 454.854 337.496 461.341 339.559 464.248C342.947 469.022 352.045 470.71 358.367 467.739C361.675 466.184 365.757 459.82 365.757 456.216C365.757 453.917 364.884 454.144 362.583 457.042C356.692 464.458 344.039 463.581 339.02 455.408C337.965 453.69 336.917 452.871 336.542 453.473ZM321.676 483.142C319.991 485.124 319.107 487.341 319.107 489.579C319.107 503.492 338.114 506.49 342.081 493.203C343.018 490.064 341.947 489.668 339.806 492.362C333.979 499.699 323.291 493.899 324.252 483.921C324.454 481.83 324.534 480.117 324.432 480.117C324.33 480.117 323.09 481.479 321.676 483.142ZM753.846 504.339C749.206 507.809 738.522 515.363 730.104 521.124C711.047 534.167 701.283 541.814 697.624 546.563L694.789 550.243L694.525 573.174C694.332 590.058 694.565 596.107 695.412 596.107C696.045 596.107 700.184 592.669 704.609 588.468C709.034 584.267 717.533 577.301 723.497 572.986C739.803 561.189 756.978 548.301 760.068 545.543L762.816 543.09L762.55 520.559L762.283 498.029L753.846 504.339ZM631.244 521.213C622.072 525.482 616.93 533.667 616.895 544.053C616.876 549.583 617.327 551.238 620.105 555.843C625.838 565.343 637.047 570.118 647.684 567.591C661.767 564.245 670.365 548.217 664.964 535.377C663.005 530.721 657.214 524.764 652.109 522.154C646.432 519.251 636.427 518.8 631.244 521.213ZM635.236 528.444C628.842 531.937 624.814 537.954 624.814 544.01C624.814 548.994 626.659 552.651 631.141 556.548C637.492 562.071 645.184 561.931 651.614 556.179C656.861 551.484 659.179 545.404 657.567 540.565C654.322 530.827 642.559 524.443 635.236 528.444ZM101.37 531.09C100.454 532.093 90.1856 539.386 78.5539 547.297C53.8462 564.099 44.8923 571.271 40.4467 577.817C37.5881 582.026 37.2208 583.334 37.2208 589.298V596.028L57.3201 596.313L77.4194 596.598L84.3672 591.486C88.1886 588.675 94.3295 583.91 98.0149 580.897L104.715 575.421V552.343C104.715 539.65 104.337 529.265 103.876 529.265C103.414 529.265 102.287 530.086 101.37 531.09ZM566.616 535.024C562.168 537.794 558.504 542.962 557.783 547.483C557.281 550.624 557.706 552.41 559.97 556.675C566.248 568.506 580.209 568.805 586.817 557.25C590.873 550.159 589.569 542.682 583.237 536.72C579.193 532.913 571.301 532.108 566.616 535.024ZM352.422 536.05C353.003 536.659 357.84 539.104 363.17 541.481C373.458 546.069 375.739 547.438 371.71 546.607C370.346 546.325 366.774 545.858 363.772 545.569L358.313 545.043L362.283 546.994C364.467 548.066 368.71 550.021 371.712 551.335L377.171 553.726L373.498 553.782C371.478 553.814 367.587 553.364 364.852 552.783C354.845 550.657 355.231 552.235 365.792 556.623C385.793 564.935 412.686 570.59 431.687 570.481C438.279 570.443 444.566 570.032 445.658 569.567C447.484 568.789 447.444 568.713 445.161 568.608C443.797 568.545 438.437 567.451 433.251 566.175L423.821 563.857L429.28 563.69C434.88 563.519 444.964 562.047 442.049 561.826C441.156 561.758 439.146 561.042 437.582 560.234L434.739 558.766L440.199 558.626C443.201 558.55 444.541 558.288 443.176 558.045C439.342 557.364 438.356 555.81 441.737 555.776C447.844 555.713 441.494 554.011 427.295 551.905C410.858 549.465 390.642 545.208 376.179 541.139C370.72 539.603 363.797 537.813 360.794 537.16C357.792 536.508 354.442 535.742 353.35 535.458C351.903 535.082 351.652 535.243 352.422 536.05ZM355.394 568.83C356.199 571.414 367.861 596.06 380.046 620.926C387.707 636.561 390.525 640.895 390.593 637.145C390.604 636.47 391.452 636.996 392.476 638.315L394.337 640.714L393.889 637.824L393.439 634.934L394.948 637.391C395.896 638.936 396.48 639.301 396.522 638.374C396.577 637.175 396.835 637.22 397.908 638.62C400.371 641.834 400.478 640.356 398.158 635.179C393.53 624.858 357.023 566.618 355.182 566.618C354.919 566.618 355.015 567.614 355.394 568.83ZM161.026 572.602C151.349 574.86 141.928 582.928 138.288 592.075C135.039 600.237 135.165 610.574 138.602 617.85C143.635 628.505 152.247 635.229 163.471 637.263C177.961 639.89 191.503 633.061 198.726 619.485C201.198 614.839 201.485 613.308 201.452 604.953C201.42 596.813 201.081 594.985 198.806 590.7C196.185 585.762 189.923 579.204 184.889 576.124C181.506 574.054 171.783 571.5 167.782 571.631C166.122 571.686 163.083 572.122 161.026 572.602ZM463.321 576.368C485.045 592.886 558.48 637.536 544.279 625.591L541.935 623.62L546.733 625.591C552.74 628.059 553.511 628.045 550.372 625.527C539.297 616.638 506.869 596.992 479.404 582.531C456.559 570.503 454.639 569.766 463.321 576.368ZM389.578 578.772C389.578 580.895 425.714 618.947 440.57 632.465C450.473 641.478 457.292 646.464 452.162 640.942C449.774 638.37 449.77 638.333 451.889 638.653C453.074 638.832 454.39 639.356 454.813 639.817C455.238 640.279 454.915 640.279 454.094 639.817C452.804 639.092 452.79 639.205 453.988 640.666C454.747 641.594 455.6 642.125 455.881 641.847C456.163 641.568 456.993 641.833 457.725 642.435C458.458 643.037 459.057 643.11 459.057 642.598C459.057 640.733 439.879 620.506 426.562 608.326C414.231 597.048 392.848 579.406 390.504 578.578C389.995 578.397 389.578 578.484 389.578 578.772ZM442.375 592.46C459.323 606.538 474.423 617.586 475.397 616.622C475.867 616.156 455.269 599.338 445.781 592.44C436.589 585.758 434.323 585.771 442.375 592.46ZM163.052 589.775C158.353 592.301 157.039 597.143 159.741 601.976C160.966 604.167 160.866 604.678 158.713 607.211C154.917 611.679 157.261 617.505 163.988 620.325C168.206 622.093 171.658 622.015 175.824 620.057C181.478 617.4 183.79 610.68 180.6 606.172C179.452 604.547 179.328 603.524 180.104 602.086C181.426 599.64 181.433 595.535 180.119 593.104C177.704 588.633 168.512 586.841 163.052 589.775ZM167.32 595.526C165.697 597.463 166.899 601.022 169.176 601.022C171.876 601.022 173.818 598.279 172.541 596.27C171.138 594.064 168.822 593.734 167.32 595.526ZM638.567 607.918C636.401 614.577 636.186 614.85 632.306 615.84C625.51 617.576 625.029 617.765 623.837 619.187C622.661 620.59 623.309 620.874 632.962 623.18C636.119 623.934 637.211 625.121 638.084 628.747C638.437 630.21 639.176 632.58 639.727 634.015C641.119 637.639 643.151 635.775 644.678 629.475C646.036 623.867 646.183 623.74 652.976 622.246C659.455 620.82 659.698 618.72 653.598 616.866C646.547 614.723 646.272 614.448 644.281 607.553C643.244 603.961 642.038 601.022 641.602 601.022C641.166 601.022 639.801 604.125 638.567 607.918ZM26.7543 609.332C24.807 611.26 24.3176 612.747 24.3176 616.736C24.3176 623.061 26.1539 627.418 30.263 630.843C34.131 634.066 34.7633 633.811 32.7603 629.834C31.9395 628.205 30.9836 624.816 30.6352 622.303L30.003 617.732H69.7816C92.1151 617.732 109.801 618.117 110.109 618.612C110.674 619.516 109.381 627.505 108.104 631.002C107.534 632.561 108.06 632.357 110.639 630.019C114.532 626.49 116.625 622.015 116.625 617.223C116.625 610.356 111.691 604.827 108.917 608.586C107.713 610.219 105.113 610.385 76.137 610.676C41.5484 611.023 32.2581 610.524 32.2581 608.315C32.2581 606.148 29.4452 606.667 26.7543 609.332ZM166.998 607.981C162.554 610.544 167.516 616.287 172.083 613.867C174.718 612.47 174.82 609.286 172.274 607.937C169.928 606.693 169.219 606.699 166.998 607.981ZM685.811 609.332C681.061 614.036 683.591 626.747 690.206 631.412C693.664 633.849 693.929 633.582 691.904 629.704C691.136 628.234 690.354 625.049 690.167 622.627L689.826 618.223L729.28 617.967L768.735 617.709V621.684C768.735 623.87 768.072 627.226 767.265 629.143C765.386 633.596 767.032 633.192 771.113 628.199C773.595 625.162 774.175 623.449 774.516 618.13C774.879 612.484 774.657 611.435 772.651 609.32C769.891 606.411 769.292 606.367 766.749 608.885C764.843 610.773 763.441 610.851 731.141 610.851C696.213 610.851 691.315 610.534 691.315 608.271C691.315 606.143 688.479 606.689 685.811 609.332ZM481.389 662.296C471.321 665.549 465.01 672.418 462.376 682.992C460.98 688.596 460.986 689.713 462.447 695.362C464.226 702.242 468.405 709.591 476.268 719.67C484.934 730.779 486.849 733.986 486.849 737.39C486.849 741.208 483.896 744.534 480.505 744.534C479.2 744.534 476.186 743.659 473.805 742.59C468.862 740.368 464.955 740.069 463.226 741.782C462.473 742.527 462.035 746.27 462.035 751.95C462.035 762.907 462.803 763.879 472.601 765.298C488.747 767.637 500.635 762.489 506.256 750.723C508.478 746.071 508.833 744.18 508.518 738.662C508.043 730.341 504.458 723.045 494.257 709.639C485.215 697.756 482.878 693.558 482.878 689.188C482.878 684.082 485.135 682.745 494.321 682.407L502.233 682.116L502.519 674.162C502.91 663.265 501.618 661.655 492.179 661.282C488.429 661.135 483.573 661.591 481.389 662.296ZM629.068 662.352C613.289 667.445 602.414 681.783 599.911 700.792C597.582 718.482 600.335 736.872 606.944 747.762C614.296 759.877 625.982 766.441 640.199 766.441C650.798 766.441 657.744 763.782 665.342 756.816C676.409 746.669 680.397 734.966 680.397 712.637C680.397 697.49 679.192 690.922 674.863 682.46C671.225 675.35 664.064 668.168 657.088 664.634C651.959 662.035 649.855 661.565 642.184 661.306C636.5 661.113 631.729 661.494 629.068 662.352ZM38.3831 663.237C37.4978 664.294 37.2665 677.138 37.46 714.666L37.7171 764.685H62.0347H86.3524L91.3151 762.069C101.585 756.657 108.045 746.503 108.098 735.687C108.138 727.604 105.503 721.6 99.2893 715.62L94.7186 711.221L98.0576 706.889C108.695 693.089 103.426 673.174 87.0293 665.199C81.4799 662.501 81.0531 662.452 60.4764 662.143C43.2516 661.885 39.3548 662.077 38.3831 663.237ZM150.966 664.177C150.175 665.393 143.664 682.755 136.495 702.758C129.327 722.761 121.701 743.827 119.547 749.57C117.395 755.313 115.633 760.701 115.633 761.541C115.633 764.814 118.526 766.159 125.574 766.159C134.544 766.159 136.303 764.575 140.298 752.889L143.323 744.042L159.639 743.773L175.955 743.505L179.678 753.111C181.726 758.396 183.84 763.272 184.378 763.947C185.027 764.765 188.293 765.176 194.131 765.176C205.686 765.176 205.939 764.737 201.529 752.339C199.713 747.235 193.75 730.453 188.278 715.045C173.387 673.117 170.248 664.654 169.069 663.247C168.353 662.393 165.396 661.965 160.2 661.965C153.202 661.965 152.256 662.192 150.966 664.177ZM216.481 664.082C215.072 666.075 214.888 671.883 214.888 714.576C214.888 750.787 215.185 763.111 216.079 763.997C216.81 764.72 220.38 765.176 225.31 765.176C230.24 765.176 233.81 764.72 234.541 763.997C235.383 763.163 235.732 757.391 235.732 744.296V725.775L243.411 726.062L251.092 726.349L256.824 739.128C259.976 746.156 264.002 754.781 265.77 758.295L268.983 764.685L276.813 765.176C285.784 765.739 288.879 764.534 287.759 760.915C286.525 756.927 277.21 735.216 273.802 728.386L270.404 721.575L274.874 717.51C281.629 711.369 284.866 703.712 284.848 693.911C284.838 687.954 284.313 684.923 282.686 681.411C279.674 674.912 272.365 667.527 266.217 664.774C261.382 662.608 259.635 662.436 239.558 662.143C218.122 661.831 218.07 661.834 216.481 664.082ZM300.447 663.145C298.73 664.845 298.73 762.296 300.447 763.997C301.837 765.374 360.411 765.698 362.572 764.341C363.501 763.758 363.774 761.119 363.564 754.771L363.275 746.008L341.935 745.517L320.596 745.025L320.315 733.991L320.035 722.957L336.692 722.687L353.35 722.417V713.079V703.741L336.725 703.472L320.099 703.202V692.905V682.607H338.397C348.461 682.607 357.804 682.19 359.16 681.679C361.443 680.819 361.651 680.196 361.954 673.247C362.496 660.87 365.478 661.965 331.248 661.965C309.541 661.965 301.32 662.28 300.447 663.145ZM378.728 663.805C377.982 665.185 377.728 680.915 377.907 714.738L378.164 763.675L380.645 764.747C382.145 765.394 386.071 765.594 390.571 765.251L398.015 764.685L398.511 745.517L399.007 726.349L404.414 726.045C413.585 725.53 413.681 725.609 418.909 737.894C426.834 756.517 430.272 763.65 431.92 764.882C433.395 765.986 442.748 765.832 448.883 764.603C452.944 763.79 451.713 759.741 440.143 735.856L433.238 721.603L438.654 716.604C446.054 709.774 448.548 704.063 448.566 693.911C448.577 687.512 448.103 685.032 446.026 680.596C442.51 673.092 438.096 668.433 431.446 665.204C425.846 662.485 425.647 662.464 402.807 662.137C380.53 661.819 379.773 661.871 378.728 663.805ZM520.708 663.306C519.897 664.273 519.657 678.546 519.842 714.666L520.099 764.685L528.882 764.97C534.504 765.153 538.166 764.844 539.056 764.113C540.163 763.202 540.447 758.986 540.447 743.431V723.892H552.834H565.22L565.489 744.288L565.757 764.685L574.54 764.97C580.162 765.153 583.823 764.844 584.714 764.113C585.872 763.16 586.104 754.846 586.104 714.369C586.104 682.747 585.745 665.104 585.077 663.866C584.186 662.218 582.939 661.965 575.706 661.965C570.121 661.965 567.098 662.371 566.56 663.194C566.118 663.87 565.534 673.048 565.261 683.59L564.764 702.758L554.839 703.045C539.011 703.504 540.447 705.475 540.447 683.277C540.447 669.847 540.099 663.98 539.256 663.145C537.524 661.429 522.169 661.563 520.708 663.306ZM696.695 664.405C695.142 666.75 695.068 670.75 695.739 715.326C696.168 743.793 696.863 764.177 697.426 764.858C698.451 766.093 712.964 766.015 715.01 764.761C715.773 764.295 716.129 758.488 716.129 746.543V729.009L728.311 728.662C739.701 728.338 740.919 728.107 747.063 725.111C754.709 721.382 759.959 716.052 763.638 708.282C765.82 703.671 766.253 701.376 766.253 694.403C766.253 687.256 765.854 685.243 763.494 680.483C760.185 673.811 754.579 668.558 747.017 665.047C741.608 662.535 740.786 662.448 719.909 662.158L698.378 661.86L696.695 664.405ZM58.2749 682.458C57.339 683.046 57.073 685.873 57.2824 693.01L57.5682 702.758L65.729 703.043C71.5087 703.245 74.7285 702.899 76.7613 701.858C79.604 700.402 82.8784 695.122 82.8784 691.994C82.8784 688.777 79.7102 684.394 76.3931 683.021C72.7653 681.52 60.3802 681.135 58.2749 682.458ZM236.163 682.913C235.888 683.622 235.791 689.262 235.945 695.446L236.228 706.69L245.161 706.958C255.844 707.279 260.014 705.626 262.881 699.934C266.087 693.57 262.938 685.874 255.944 682.98C251.598 681.181 236.854 681.132 236.163 682.913ZM398.942 682.913C398.667 683.622 398.57 689.262 398.725 695.446L399.007 706.69L408.437 706.687C419.476 706.683 423.433 705.023 426.538 699.097C429.708 693.046 426.664 685.855 419.716 682.98C415.345 681.17 399.637 681.12 398.942 682.913ZM633.232 682.995C629.044 684.801 624.138 690.653 622.647 695.619C621.881 698.17 621.393 705.386 621.399 714.062C621.407 727.322 621.588 728.699 623.984 733.827C631.698 750.336 651.632 748.821 657.686 731.264C659.492 726.028 659.501 702.439 657.7 696.227C654.361 684.713 643.217 678.685 633.232 682.995ZM716.562 682.907C716.289 683.613 716.191 689.695 716.345 696.423L716.625 708.656L725.558 708.918C735.944 709.224 740.024 707.748 743.653 702.367C748.973 694.481 744.544 684.389 734.958 682.557C727.89 681.208 717.141 681.412 716.562 682.907ZM155.468 711.948C153.212 718.354 151.365 723.883 151.365 724.235C151.365 724.587 155.385 724.875 160.298 724.875C165.211 724.875 169.231 724.683 169.231 724.449C169.231 724.214 167.449 719.238 165.271 713.391C163.094 707.542 161.307 702.206 161.301 701.529C161.267 697.771 159.098 701.647 155.468 711.948ZM65.7568 722.701L57.072 722.985V734.336V745.686L68.2382 745.356C77.5107 745.081 79.8591 744.692 82.0864 743.059C89.9077 737.327 87.2665 724.952 77.8233 723.086C75.9633 722.718 70.534 722.545 65.7568 722.701Z" fill="#071219"/>
<path d="M763.5 610.5H734L763.5 589.5V610.5Z" fill="white" stroke="white"/>
<path d="M37 445.5V400L51.5 387L68.5 373.5L86.5 362L96.5 355.5L104.5 349.5V393L70.5 415.5L53 428.5L44.5 436L37 445.5Z" fill="#3531CD"/>
<path d="M37 448.5V445.5M37 445.5V400L51.5 387L68.5 373.5L86.5 362L96.5 355.5L104.5 349.5V393L70.5 415.5L53 428.5L44.5 436L37 445.5Z" stroke="#3531CD"/>
<path d="M37 445.5V400L51.5 387L68.5 373.5L86.5 362L96.5 355.5L104.5 349.5V393L70.5 415.5L53 428.5L44.5 436L37 445.5Z" fill="#3531CD"/>
<path d="M37 448.5V445.5M37 445.5V400L51.5 387L68.5 373.5L86.5 362L96.5 355.5L104.5 349.5V393L70.5 415.5L53 428.5L44.5 436L37 445.5Z" stroke="#3531CD"/>
<path d="M37 582V536.5L51.5 523.5L68.5 510L86.5 498.5L96.5 492L104.5 486V529.5L70.5 552L53 565L44.5 572.5L37 582Z" fill="#3531CD"/>
<path d="M37 585V582M37 582V536.5L51.5 523.5L68.5 510L86.5 498.5L96.5 492L104.5 486V529.5L70.5 552L53 565L44.5 572.5L37 582Z" stroke="#3531CD"/>
<path d="M695 501.818V453.561L709.607 439.773L726.733 425.455L744.867 413.258L754.941 406.364L763 400V446.136L728.748 470L711.119 483.788L702.556 491.742L695 501.818Z" fill="#3531CD"/>
<path d="M695 505V501.818M695 501.818V453.561L709.607 439.773L726.733 425.455L744.867 413.258L754.941 406.364L763 400V446.136L728.748 470L711.119 483.788L702.556 491.742L695 501.818Z" stroke="#3531CD"/>
<path d="M695 610V595L709.607 582.773L726.733 568.455L744.768 555.5L754.623 548.5L763 542V589.136L745.754 601.5L733.435 610H706.826H695Z" fill="#3531CD" stroke="#3531CD"/>
<path d="M37 495V449.5L51.5 436.5L68.5 423L86.5 411.5L96.5 405L104.5 399V442.5L70.5 465L53 478L44.5 485.5L37 495Z" fill="#CD3131"/>
<path d="M37 498V495M37 495V449.5L51.5 436.5L68.5 423L86.5 411.5L96.5 405L104.5 399V442.5L70.5 465L53 478L44.5 485.5L37 495Z" stroke="#CD3131"/>
<path d="M695 551V505.5L709.5 492.5L726.5 479L744.5 467.5L754.5 461L762.5 455V498.5L728.5 521L711 534L702.5 541.5L695 551Z" fill="#CD3131"/>
<path d="M695 554V551M695 551V505.5L709.5 492.5L726.5 479L744.5 467.5L754.5 461L762.5 455V498.5L728.5 521L711 534L702.5 541.5L695 551Z" stroke="#CD3131"/>
<path d="M695 362.5V407.5L710.5 393L729 379L747 367L762.5 356.5V338.5H725.5L716 344L708.5 350L701.5 355.5L695 362.5Z" fill="#CD3131" stroke="#CD3131"/>
<path d="M695 362.5V407.5L710.5 393L729 379L747 367L762.5 356.5V338.5H725.5L716 344L708.5 350L701.5 355.5L695 362.5Z" fill="#CD3131" stroke="#CD3131"/>
<path d="M56.2 337.6L37.2 352.6V337.6H56.2Z" fill="#CD3131"/>
<path d="M104.25 596.15H77.25L104.25 575.15V596.15Z" fill="#CD3131" stroke="#CD3131"/>
</svg>
